<?xml version="1.0" standalone="no"?>
<!DOCTYPE svg PUBLIC "-//W3C//DTD SVG 20010904//EN"
 "http://www.w3.org/TR/2001/REC-SVG-20010904/DTD/svg10.dtd">
<svg version="1.0" xmlns="http://www.w3.org/2000/svg"
 width="500.000000pt" height="500.000000pt" viewBox="0 0 500.000000 500.000000"
 preserveAspectRatio="xMidYMid meet">

<g transform="translate(0.000000,500.000000) scale(0.100000,-0.100000)"
fill="#000000" stroke="none">
<path d="M2518 4158 c39 -7 52 -13 48 -24 -3 -8 6 -20 22 -29 26 -15 26 -16 2
-9 -14 4 -32 7 -40 6 -8 -1 -51 -7 -95 -12 -44 -6 -88 -12 -97 -13 -9 0 -15
-4 -14 -7 2 -3 -10 -16 -27 -30 -17 -14 -28 -19 -24 -12 5 6 6 12 3 12 -2 0
-14 -20 -26 -45 -19 -39 -25 -45 -44 -38 -54 20 -196 -2 -196 -30 0 -5 -4 -5
-10 -2 -5 3 -10 1 -10 -5 0 -6 -5 -8 -10 -5 -6 4 -9 3 -8 -2 4 -16 -23 -54
-34 -47 -7 5 -9 1 -5 -9 7 -19 -1 -49 -12 -43 -11 7 -1 -138 12 -164 32 -67
105 -130 151 -130 16 0 17 -15 12 -195 -5 -186 -5 -195 14 -205 20 -11 663
-11 673 0 3 3 7 92 9 198 l3 194 40 14 c22 7 47 22 56 33 9 11 19 17 23 14 3
-4 6 0 6 8 1 20 48 71 60 64 6 -3 7 1 4 9 -3 9 -10 14 -14 11 -5 -3 -6 4 -3
15 3 11 9 22 13 25 4 2 4 25 0 50 -4 25 -3 48 2 51 4 3 8 -5 9 -18 0 -22 1
-22 9 -3 5 11 9 14 9 7 1 -7 -5 -22 -11 -33 -11 -17 -10 -23 0 -26 6 -3 10 -9
7 -14 -4 -5 8 -7 24 -5 26 3 29 1 21 -13 -5 -10 -5 -23 1 -32 5 -7 9 -10 9 -5
0 5 7 3 15 -4 8 -7 15 -10 15 -6 0 4 11 -1 25 -10 14 -9 29 -14 32 -10 7 7
-29 36 -38 30 -3 -2 -6 14 -5 36 0 21 3 37 5 34 2 -2 10 1 17 7 8 6 25 8 39 5
27 -7 42 -44 29 -73 -4 -10 -6 -22 -5 -26 1 -5 -3 -5 -9 -2 -6 4 -18 -1 -25
-11 -19 -25 -19 -38 0 -30 15 5 18 -3 18 -46 0 -14 3 -15 20 -7 16 9 22 8 29
-5 5 -9 16 -16 23 -16 24 0 17 -26 -6 -27 -27 -2 -28 -4 -33 -41 -2 -20 1 -29
7 -25 6 3 7 1 3 -5 -10 -17 -10 -17 -45 39 -27 43 -30 54 -19 68 12 14 11 14
-4 2 -16 -12 -19 -10 -27 10 -5 13 -17 31 -27 40 -24 21 -61 30 -61 15 0 -6
-25 -50 -56 -98 -79 -123 -87 -141 -87 -196 0 -60 29 -107 85 -139 52 -30 127
-31 174 -2 32 19 34 19 48 2 13 -16 13 -16 3 6 -8 15 -8 26 -2 30 37 24 53
124 28 170 -15 27 -11 55 6 45 6 -4 5 -10 -3 -15 -10 -6 -8 -8 7 -7 18 2 20 5
10 20 -6 10 -14 18 -18 18 -5 0 -8 5 -8 11 0 6 6 9 14 6 10 -4 12 0 8 15 -4
17 -2 20 11 15 10 -4 17 -2 17 4 0 6 7 9 15 5 9 -3 19 3 25 15 6 11 15 17 21
14 5 -4 9 -2 9 2 0 5 9 14 20 21 18 11 25 9 54 -13 19 -14 40 -23 49 -20 8 4
18 1 23 -6 5 -9 2 -10 -9 -6 -21 8 -71 -48 -87 -98 -18 -54 -8 -127 24 -175
38 -57 33 -120 -5 -73 -18 21 -71 43 -103 43 -39 0 -51 -32 -36 -97 15 -70 58
-120 115 -134 44 -11 55 -26 55 -78 l0 -25 -30 29 c-21 21 -42 29 -79 33 -48
4 -50 3 -57 -22 -22 -89 55 -206 135 -206 19 0 21 -7 23 -142 3 -131 5 -143
22 -146 10 -2 28 1 40 7 20 11 21 17 16 145 l-5 133 43 13 c39 11 66 33 107
85 l16 20 -9 -20 c-5 -11 -7 -26 -4 -34 3 -8 0 -11 -7 -7 -7 5 -9 1 -4 -10 5
-13 3 -15 -8 -9 -8 4 -11 5 -7 0 4 -4 4 -13 -1 -19 -6 -7 -4 -16 5 -24 12 -11
15 -11 20 1 3 8 4 18 3 23 -4 21 2 32 20 37 14 3 18 1 14 -10 -5 -13 -3 -13
15 -2 17 10 23 10 37 -5 10 -9 20 -14 23 -11 3 3 -3 11 -13 19 -18 13 -13 42
6 30 5 -3 6 -11 2 -17 -4 -7 1 -5 12 3 10 8 20 14 22 13 1 -2 9 -3 16 -3 9 0
8 3 -2 9 -7 5 -21 8 -30 6 -9 -1 -22 5 -29 14 -10 14 -11 14 -6 -4 6 -16 5
-18 -7 -7 -10 9 -10 15 -1 24 10 10 17 10 35 -1 18 -11 20 -11 10 0 -19 19
-16 35 10 47 21 11 21 11 -5 7 -25 -3 -28 -1 -28 25 0 16 5 32 11 36 8 5 10
-1 6 -19 -6 -22 -4 -24 13 -20 11 3 20 10 20 15 0 5 -4 6 -10 3 -5 -3 -10 0
-11 7 0 7 -2 23 -5 35 -3 17 0 21 13 16 10 -4 14 -2 9 5 -3 6 -2 13 3 16 5 4
12 -3 16 -14 6 -20 25 -19 25 1 0 6 -4 8 -9 5 -5 -3 -12 1 -15 9 -4 12 -10 13
-25 6 -10 -6 -21 -8 -25 -6 -3 3 -4 2 -1 -2 3 -3 0 -12 -6 -20 -9 -10 -8 -13
2 -13 11 0 11 -2 -1 -10 -22 -14 -36 5 -19 26 9 12 10 15 2 10 -9 -5 -13 -1
-13 11 0 11 -5 24 -12 31 -8 8 -5 14 15 21 26 10 37 31 16 31 -5 0 -7 -4 -4
-10 3 -5 1 -10 -4 -10 -6 0 -11 7 -11 15 0 8 4 15 8 15 4 0 7 17 7 37 -1 20 4
48 11 62 8 14 14 34 14 44 0 11 5 15 11 11 9 -5 -3 28 -16 44 -1 1 -2 -11 -3
-28 -1 -40 -8 -49 -32 -43 -16 4 -18 11 -13 31 4 19 3 23 -7 17 -8 -5 -11 -4
-6 3 3 6 1 22 -6 37 -8 18 -14 22 -20 13 -13 -22 -9 -68 6 -68 7 0 16 -10 19
-22 8 -29 0 -36 -16 -13 -12 16 -14 16 -20 2 -5 -12 -14 -15 -36 -11 -36 8
-93 -10 -116 -36 -24 -26 -30 -25 -33 6 -1 16 10 45 28 72 25 38 30 55 30 108
0 35 -5 66 -11 69 -6 4 -8 13 -5 21 3 8 1 14 -4 14 -5 0 -14 10 -21 21 -8 15
-8 19 0 15 6 -4 11 -3 11 2 0 6 -7 13 -15 16 -16 6 -17 36 -3 46 4 3 1 18 -7
34 -8 16 -15 35 -15 42 0 8 -4 14 -9 14 -5 0 -12 12 -15 26 -6 21 -9 24 -21
14 -13 -11 -15 -5 -13 37 2 49 3 50 20 29 16 -20 17 -20 18 -2 0 11 -3 16 -7
13 -3 -4 -17 8 -30 25 -12 18 -23 29 -23 25 0 -4 -9 2 -20 13 -12 12 -26 18
-32 14 -6 -4 -8 -3 -5 4 4 5 -8 22 -25 36 -18 15 -38 30 -44 35 -5 4 -32 21
-60 36 -27 15 -55 32 -61 37 -7 6 -13 7 -13 3 0 -5 -8 -1 -17 7 -29 26 -98 55
-126 54 -15 -1 -27 3 -27 9 -1 15 -70 48 -70 32 0 -8 -3 -8 -9 2 -5 8 -14 10
-21 6 -8 -5 -11 -4 -7 2 11 17 -37 25 -49 8 -6 -8 -22 -16 -35 -16 -21 -1 -21
-2 -4 -6 54 -14 66 -23 57 -40 -7 -12 -5 -24 6 -41 l15 -23 -45 22 c-24 12
-45 26 -46 33 -1 6 -5 26 -8 45 -5 22 -2 36 6 41 17 11 -57 31 -123 34 -37 2
-47 0 -43 -11 3 -7 1 -13 -3 -13 -5 0 -18 -3 -28 -7 -15 -6 -16 -4 -5 9 11 14
8 17 -19 27 -18 6 -46 10 -63 10 -23 -1 -16 -4 22 -11z m52 -68 c12 -8 11 -10
-7 -10 -13 0 -23 5 -23 10 0 13 11 13 30 0z m66 -28 c-2 -9 -9 -18 -17 -20
-11 -3 -11 -1 1 7 13 10 13 11 0 12 -9 0 -11 2 -3 5 7 3 9 13 6 22 -4 13 -3
14 5 3 5 -7 9 -21 8 -29z m302 -1 c11 -7 11 -9 -2 -14 -9 -4 -23 -4 -32 0 -13
5 -13 7 -2 14 7 5 15 9 18 9 3 0 11 -4 18 -9z m-255 -28 c-7 -2 -13 -11 -13
-19 0 -18 -8 -18 -28 3 -16 16 -16 16 0 10 10 -3 20 -2 23 3 4 6 12 10 18 9 9
0 9 -2 0 -6z m47 -5 c0 -4 7 -8 16 -8 23 0 104 -41 104 -53 0 -5 -8 -6 -17 -2
-27 11 -107 6 -130 -8 -8 -5 -13 -3 -13 7 0 9 5 16 10 16 6 0 10 5 10 10 0 6
-7 10 -15 10 -12 0 -13 4 -4 18 12 19 39 26 39 10z m-195 -27 c54 -25 91 -67
105 -118 12 -47 23 -52 54 -24 87 78 226 11 226 -109 0 -94 -69 -170 -156
-170 l-24 0 0 -199 c0 -184 -1 -199 -17 -196 -10 2 -134 4 -275 4 l-258 1 -2
192 c-3 184 -4 193 -23 196 -51 7 -67 14 -100 43 -39 35 -72 120 -61 163 18
73 122 133 185 106 16 -6 37 -20 47 -31 27 -29 39 -23 52 28 29 105 147 160
247 114z m535 5 c0 -2 -7 -7 -16 -10 -8 -3 -12 -2 -9 4 6 10 25 14 25 6z
m-162 -71 c-3 -3 -9 2 -12 12 -6 14 -5 15 5 6 7 -7 10 -15 7 -18z m326 -34
c-2 -3 -12 3 -22 13 -16 17 -16 18 5 5 12 -7 20 -15 17 -18z m233 -325 c4 -8
15 -16 23 -19 8 -2 2 -3 -13 -1 -19 3 -26 0 -21 -8 4 -7 3 -8 -4 -4 -14 9 -16
46 -2 46 5 0 13 -6 17 -14z m36 -43 c-7 -2 -19 -2 -25 0 -7 3 -2 5 12 5 14 0
19 -2 13 -5z m-388 -84 c13 -29 23 -55 21 -58 -3 -4 -1 -22 3 -41 6 -27 3 -42
-13 -65 -11 -16 -25 -33 -31 -37 -7 -5 -7 -8 1 -8 5 0 19 7 30 15 10 8 26 14
34 14 10 1 6 -6 -10 -19 -38 -30 -110 -27 -143 5 -33 34 -40 67 -23 109 16 39
86 136 98 136 4 0 19 -23 33 -51z m391 -86 c7 -38 -5 -88 -21 -88 -12 0 -19
68 -11 102 9 34 24 28 32 -14z m114 -244 c0 -26 -41 -78 -62 -79 -16 0 -7 30
18 59 26 32 44 40 44 20z m-221 -25 c24 -31 27 -54 7 -54 -17 0 -56 46 -56 66
0 23 27 16 49 -12z m265 -59 c-9 -14 -19 -24 -21 -21 -6 6 20 46 30 46 4 0 0
-11 -9 -25z m16 -25 c0 -5 -7 -13 -16 -18 -15 -8 -14 -10 2 -16 9 -4 21 -2 24
5 14 22 21 -10 18 -85 -2 -45 -6 -69 -11 -60 -5 8 -8 25 -7 37 5 58 2 64 -32
60 -62 -8 -78 -13 -110 -42 l-33 -29 3 54 c4 51 5 54 30 54 15 0 38 9 52 20
29 22 44 26 34 8 -4 -7 2 -5 12 5 20 19 34 22 34 7z m75 -101 c-6 -16 -4 -20
6 -13 10 6 10 3 -1 -10 -14 -18 -15 -18 -21 5 -6 21 -7 19 -10 -11 -2 -34 -2
-34 -6 -5 -3 20 1 33 13 42 24 18 26 17 19 -8z m-346 -78 c21 -30 28 -61 13
-61 -13 0 -49 43 -57 68 -10 33 19 29 44 -7z m221 21 c0 -11 -30 -55 -48 -69
-39 -32 -44 2 -6 46 24 29 54 41 54 23z m145 -20 c-8 -8 -25 10 -19 20 4 6 9
5 15 -3 4 -7 6 -15 4 -17z m-31 -57 c3 -8 1 -15 -3 -15 -5 0 -11 7 -15 15 -3
8 -1 15 3 15 5 0 11 -7 15 -15z"/>
<path d="M2705 4010 c3 -5 16 -10 28 -9 21 0 21 1 2 9 -28 12 -37 12 -30 0z"/>
<path d="M2286 3604 c-8 -20 -6 -271 1 -322 4 -27 9 -32 27 -30 21 3 21 7 21
183 0 176 0 180 -21 183 -13 2 -24 -4 -28 -14z"/>
<path d="M2442 3608 c-8 -8 -12 -61 -12 -174 0 -133 3 -165 15 -178 9 -8 22
-13 30 -10 12 5 15 37 15 190 0 171 -1 184 -18 184 -10 0 -23 -5 -30 -12z"/>
<path d="M2585 3554 c-11 -100 -1 -294 15 -304 36 -22 40 -3 40 186 l0 184
-24 0 c-23 0 -25 -5 -31 -66z"/>
<path d="M3658 2953 c7 -3 16 -2 19 1 4 3 -2 6 -13 5 -11 0 -14 -3 -6 -6z"/>
<path d="M2420 4150 c-23 -7 -23 -8 -3 -9 12 -1 29 -8 37 -17 9 -8 21 -12 28
-8 8 5 6 10 -8 15 -16 6 -16 8 -2 8 9 1 28 -3 42 -9 14 -5 26 -6 26 -1 0 5
-16 12 -36 15 -19 4 -41 9 -47 11 -7 1 -23 -1 -37 -5z"/>
<path d="M2130 4131 c0 -7 -4 -10 -8 -7 -4 2 -14 1 -22 -5 -11 -6 -7 -9 15
-10 17 -1 37 -2 45 -1 8 0 18 -5 22 -11 4 -7 6 -3 6 10 -1 13 -7 19 -15 16 -7
-3 -20 0 -28 7 -11 9 -15 9 -15 1z"/>
<path d="M2216 4115 c-3 -8 -1 -15 4 -15 6 0 10 7 10 15 0 8 -2 15 -4 15 -2 0
-6 -7 -10 -15z"/>
<path d="M1973 4082 c-13 -2 -23 -8 -23 -13 0 -6 -4 -7 -10 -4 -5 3 -10 1 -10
-4 0 -6 -3 -10 -7 -10 -22 4 -33 -3 -33 -18 0 -15 2 -16 10 -3 5 8 10 11 10 6
0 -5 7 -3 15 4 8 7 21 10 29 7 11 -4 13 -1 9 11 -5 14 -3 15 8 5 7 -7 22 -12
34 -12 16 1 17 2 3 6 -10 2 -18 8 -18 13 0 5 7 7 15 4 8 -4 15 -4 15 -1 0 8
-24 13 -47 9z"/>
<path d="M2031 4064 c0 -11 3 -14 6 -6 3 7 2 16 -1 19 -3 4 -6 -2 -5 -13z"/>
<path d="M2051 4064 c0 -11 3 -14 6 -6 3 7 2 16 -1 19 -3 4 -6 -2 -5 -13z"/>
<path d="M2255 4031 c-3 -5 -2 -12 3 -15 5 -3 9 1 9 9 0 17 -3 19 -12 6z"/>
<path d="M2810 4030 c0 -5 5 -10 10 -10 6 0 10 5 10 10 0 6 -4 10 -10 10 -5 0
-10 -4 -10 -10z"/>
<path d="M1821 4010 c-8 -4 -10 -14 -7 -21 4 -8 1 -6 -7 4 -13 16 -16 16 -30
3 -8 -8 -17 -13 -21 -11 -3 3 -4 2 -1 -2 3 -3 -27 -22 -66 -40 -51 -25 -69
-39 -65 -49 3 -8 2 -13 -3 -9 -5 3 -16 -1 -24 -9 -8 -8 -17 -13 -21 -11 -3 3
-3 2 0 -2 3 -5 10 -8 15 -8 5 0 8 -4 7 -10 -2 -5 -7 -9 -11 -7 -5 1 -5 -3 -1
-9 4 -7 2 -10 -7 -7 -8 3 -13 11 -11 17 1 7 -2 10 -8 6 -8 -5 -8 -11 -1 -19
13 -16 4 -27 -15 -19 -8 3 -11 10 -8 15 4 6 -3 5 -15 -1 -11 -7 -21 -19 -21
-27 0 -8 -5 -12 -10 -9 -12 8 -160 -140 -160 -160 0 -7 -7 -18 -15 -25 -8 -7
-15 -18 -15 -24 0 -6 7 -3 14 6 7 10 16 15 19 12 7 -7 -18 -35 -30 -33 -19 3
-31 -2 -37 -17 -3 -8 -2 -12 4 -9 6 3 7 -1 4 -9 -4 -11 3 -19 21 -26 14 -5 24
-14 20 -19 -3 -5 0 -13 6 -17 8 -4 9 -3 5 4 -4 7 10 16 36 23 24 7 48 16 55
21 13 10 103 8 103 -3 0 -4 8 -5 19 -2 10 2 25 -3 34 -12 23 -22 40 -9 33 25
-5 28 5 33 31 17 6 -4 18 -4 27 -1 11 4 16 1 16 -10 0 -9 5 -16 11 -16 5 0 7
4 4 10 -3 6 1 7 9 4 9 -3 16 -1 16 5 0 6 9 11 20 11 40 0 19 20 -22 21 -24 0
-37 3 -30 6 6 2 10 8 7 13 -3 4 6 10 20 12 14 3 25 1 25 -5 0 -17 34 -36 65
-37 17 -1 46 -8 65 -16 26 -11 28 -13 8 -9 -14 3 -34 8 -45 11 -16 6 -16 5 2
-10 19 -16 19 -17 -12 -11 -17 3 -34 2 -37 -3 -4 -6 3 -8 16 -4 14 3 19 2 14
-6 -4 -7 -13 -12 -20 -12 -21 0 -77 -59 -93 -98 -40 -96 10 -200 111 -232 45
-14 105 -1 138 30 11 10 25 17 32 16 6 -2 8 -1 5 1 -4 2 2 21 13 41 25 48 22
158 -4 184 -21 21 -24 43 -5 32 7 -5 7 -2 -2 10 -12 15 -12 17 0 14 21 -5 29
-21 17 -35 -6 -8 -8 -17 -4 -21 4 -4 13 1 20 11 7 9 19 17 27 17 9 0 4 9 -11
21 -15 12 -18 19 -8 16 9 -3 19 0 22 8 3 10 0 12 -11 8 -11 -4 -14 -2 -9 5 4
7 1 12 -8 12 -9 0 -16 -4 -16 -10 0 -5 -5 -10 -12 -10 -6 0 -3 9 7 20 16 17
16 20 2 20 -8 0 -17 -6 -20 -12 -2 -7 -7 -10 -11 -7 -10 10 5 40 17 32 6 -3 7
-1 3 6 -4 6 -11 9 -16 6 -5 -3 -13 3 -19 12 -14 23 -14 7 -1 -18 7 -13 7 -19
0 -19 -5 0 -10 4 -10 8 0 5 -24 8 -52 7 -30 -1 -37 0 -16 2 36 4 69 32 68 58
-1 5 -7 -1 -16 -15 l-14 -25 2 25 c2 18 -2 25 -17 27 -19 3 -19 2 -1 -5 17 -7
16 -10 -12 -21 -17 -7 -40 -10 -52 -6 -20 6 -20 8 -4 20 11 8 18 28 20 56 2
37 -2 48 -24 66 -15 12 -21 22 -14 23 6 0 12 -4 12 -10 0 -5 8 -10 18 -10 16
1 16 2 -1 14 -10 8 -18 18 -17 22 1 5 -4 10 -12 12 -9 2 -8 0 2 -8 13 -10 13
-11 0 -8 -8 3 -17 15 -20 29 -4 16 -13 24 -27 23 -15 -1 -19 4 -16 17 3 11 0
19 -6 19 -13 0 7 40 27 53 15 10 16 34 0 39 -7 3 -5 7 6 11 9 4 15 3 12 -2 -3
-5 5 -8 18 -7 16 1 22 6 18 15 -3 8 -1 12 4 8 6 -3 16 -2 23 3 11 6 10 10 -6
18 -10 6 -25 7 -32 2z m-180 -187 c1 -10 1 -22 0 -27 -1 -5 4 -4 12 2 11 9 18
8 33 -9 16 -17 16 -22 4 -29 -8 -6 -18 -10 -22 -10 -3 0 -20 -12 -37 -26 -17
-14 -31 -21 -31 -15 0 6 -11 11 -24 11 -17 0 -25 7 -28 25 -3 16 -1 25 7 25 7
0 15 9 18 21 4 14 10 18 19 13 7 -4 10 -4 6 1 -10 10 10 35 28 35 8 0 15 -8
15 -17z m149 -3 c0 -5 -8 -10 -17 -10 -15 0 -16 2 -3 10 19 12 20 12 20 0z
m40 -89 l25 -11 -27 5 c-25 5 -26 3 -23 -25 2 -16 0 -30 -5 -30 -6 0 -10 -6
-10 -14 0 -9 -11 -13 -34 -12 -22 1 -32 5 -29 14 3 6 1 12 -5 12 -6 0 -13 -6
-16 -12 -3 -7 -3 -2 1 12 5 22 4 23 -11 11 -14 -12 -16 -12 -10 3 3 9 10 16
16 16 5 0 2 7 -7 16 -9 9 -13 19 -9 23 4 3 9 0 11 -6 4 -10 10 -10 26 2 22 16
66 14 107 -4z m0 -31 c0 -5 -2 -10 -4 -10 -3 0 -8 5 -11 10 -3 6 -1 10 4 10 6
0 11 -4 11 -10z m-140 -52 c0 -4 -7 -8 -15 -8 -8 0 -15 4 -15 8 0 5 7 9 15 9
8 0 15 -4 15 -9z m130 8 c0 -3 -4 -8 -10 -11 -5 -3 -10 -1 -10 4 0 6 5 11 10
11 6 0 10 -2 10 -4z m-9 -84 c-7 -2 -24 -1 -38 3 -20 5 -23 9 -13 15 7 5 24 3
38 -3 13 -6 19 -13 13 -15z m-455 -51 c-4 -6 -14 -7 -23 -4 -15 6 -14 7 3 13
22 9 29 6 20 -9z m604 -3 c0 -6 -6 -5 -15 2 -8 7 -15 14 -15 16 0 2 7 1 15 -2
8 -4 15 -11 15 -16z m-73 -99 c16 -6 22 -13 16 -16 -8 -3 -13 -23 -13 -53 0
-39 -5 -54 -29 -79 -35 -37 -45 -38 -76 -6 -43 42 -31 120 23 149 33 19 43 19
79 5z"/>
<path d="M1600 3753 c0 -22 2 -25 10 -13 13 20 13 40 0 40 -5 0 -10 -12 -10
-27z"/>
<path d="M2138 4013 c12 -2 30 -2 40 0 9 3 -1 5 -23 4 -22 0 -30 -2 -17 -4z"/>
<path d="M2148 3993 c6 -2 18 -2 25 0 6 3 1 5 -13 5 -14 0 -19 -2 -12 -5z"/>
<path d="M2015 3950 c-3 -6 1 -7 9 -4 18 7 21 14 7 14 -6 0 -13 -4 -16 -10z"/>
<path d="M1940 3910 c0 -11 2 -20 4 -20 2 0 6 9 9 20 3 11 1 20 -4 20 -5 0 -9
-9 -9 -20z"/>
<path d="M1898 3812 c-19 -4 -24 -17 -9 -26 5 -3 14 1 21 9 15 18 12 23 -12
17z"/>
<path d="M1900 3680 c0 -13 5 -18 15 -14 8 4 15 12 15 20 0 8 -7 14 -15 14 -8
0 -15 -9 -15 -20z"/>
<path d="M3005 3690 c-3 -5 -1 -10 4 -10 6 0 11 5 11 10 0 6 -2 10 -4 10 -3 0
-8 -4 -11 -10z"/>
<path d="M3026 3675 c-9 -26 -7 -32 5 -12 6 10 9 21 6 23 -2 3 -7 -2 -11 -11z"/>
<path d="M3545 3670 c-3 -5 -11 -8 -18 -6 -7 1 -9 1 -4 -1 4 -3 7 -13 7 -24 0
-23 16 -25 28 -2 9 14 11 14 22 -6 6 -13 14 -20 17 -17 3 3 -6 19 -20 36 -14
16 -28 26 -32 20z"/>
<path d="M3540 3586 c0 -2 7 -6 15 -10 8 -3 15 -1 15 4 0 6 -7 10 -15 10 -8 0
-15 -2 -15 -4z"/>
<path d="M3606 3561 c-3 -5 1 -14 9 -21 11 -9 12 -16 5 -25 -8 -10 -6 -15 10
-20 12 -4 24 -4 27 -1 3 3 12 -2 19 -12 19 -25 13 4 -10 46 -13 26 -21 32 -38
26 -14 -4 -18 -2 -14 5 4 6 5 11 2 11 -3 0 -7 -4 -10 -9z m48 -27 c7 -17 0
-34 -13 -34 -5 0 -8 11 -8 25 0 28 12 33 21 9z"/>
<path d="M1766 3531 c-3 -4 6 -6 19 -3 14 2 25 6 25 8 0 8 -39 4 -44 -5z"/>
<path d="M3566 3528 c-14 -43 -15 -68 -5 -68 6 0 9 -6 6 -14 -8 -20 21 -56 38
-50 18 7 21 58 3 51 -7 -2 -12 -12 -12 -21 2 -13 -1 -14 -12 -5 -11 9 -11 13
1 25 8 8 11 22 8 31 -5 13 -2 15 11 10 12 -5 15 -3 9 6 -4 6 -8 19 -8 27 0 19
-34 26 -39 8z m19 -58 c3 -5 2 -10 -4 -10 -5 0 -13 5 -16 10 -3 6 -2 10 4 10
5 0 13 -4 16 -10z"/>
<path d="M1250 3510 c0 -5 0 -12 0 -15 0 -3 2 -4 4 -2 2 1 14 -7 27 -18 l22
-20 -23 33 c-25 34 -30 38 -30 22z"/>
<path d="M2840 3501 c0 -6 4 -13 10 -16 6 -3 7 1 4 9 -7 18 -14 21 -14 7z"/>
<path d="M1216 3463 c-6 -14 -5 -15 5 -6 7 7 10 15 7 18 -3 3 -9 -2 -12 -12z"/>
<path d="M3405 3469 c-4 -6 -5 -12 -2 -15 2 -3 7 2 10 11 7 17 1 20 -8 4z"/>
<path d="M3640 3470 c0 -5 5 -10 10 -10 6 0 10 5 10 10 0 6 -4 10 -10 10 -5 0
-10 -4 -10 -10z"/>
<path d="M3673 3443 c-3 -8 -3 -17 1 -20 3 -4 6 -1 6 6 0 7 4 10 9 7 5 -3 11
0 14 7 3 8 -2 14 -10 14 -8 0 -17 -7 -20 -14z"/>
<path d="M1328 3413 c-25 -23 -53 -63 -70 -102 -26 -56 -29 -72 -25 -135 5
-86 9 -107 22 -125 21 -30 91 -98 103 -102 10 -3 15 -35 19 -112 l6 -107 -47
0 c-30 0 -46 -4 -46 -12 0 -7 -1 -146 -1 -309 -2 -289 -1 -298 21 -343 28 -60
66 -80 134 -73 59 5 99 42 115 104 5 21 9 172 10 336 l0 297 -34 0 -35 0 0
108 c0 106 1 109 25 122 36 19 89 96 104 152 13 47 11 151 -5 193 -4 11 -22
41 -40 66 -19 25 -30 50 -26 54 4 5 1 5 -6 1 -7 -4 -24 -1 -37 8 -15 10 -46
16 -85 16 -55 0 -63 -3 -102 -37z m174 -65 c86 -92 89 -219 8 -300 -45 -45
-80 -49 -131 -15 -41 28 -78 111 -79 177 -1 131 127 218 202 138z m-10 -963
c-4 -309 -7 -325 -62 -325 -59 0 -62 19 -65 325 l-3 274 41 4 c23 2 53 3 67 3
l25 -1 -3 -280z"/>
<path d="M1404 2556 c-10 -26 1 -51 23 -54 25 -4 46 27 37 52 -8 20 -53 21
-60 2z"/>
<path d="M1410 2185 c-16 -20 -9 -49 14 -53 11 -3 26 4 33 14 11 15 10 21 -4
36 -20 22 -27 22 -43 3z"/>
<path d="M1220 3421 c0 -11 3 -22 8 -24 4 -3 7 6 7 19 0 13 -3 24 -7 24 -5 0
-8 -9 -8 -19z"/>
<path d="M3706 3423 c-6 -14 -5 -15 5 -6 7 7 10 15 7 18 -3 3 -9 -2 -12 -12z"/>
<path d="M1176 3357 c3 -10 9 -15 12 -12 3 3 0 11 -7 18 -10 9 -11 8 -5 -6z"/>
<path d="M3680 3330 c0 -5 5 -10 11 -10 5 0 7 5 4 10 -3 6 -8 10 -11 10 -2 0
-4 -4 -4 -10z"/>
<path d="M3766 3279 c1 -28 5 -53 8 -56 2 -3 4 3 4 13 -1 11 1 31 5 45 4 17 2
31 -6 38 -11 9 -13 1 -11 -40z"/>
<path d="M1134 3209 c-3 -6 -14 -9 -23 -6 -12 3 -17 -3 -19 -21 -1 -14 -7 -29
-13 -33 -6 -3 1 -6 15 -6 15 0 23 4 19 10 -3 6 -1 7 6 3 17 -11 -7 -39 -28
-31 -13 4 -13 2 1 -8 10 -8 14 -18 10 -22 -4 -5 0 -6 9 -3 9 4 22 2 30 -3 11
-7 8 -9 -9 -9 -13 0 -20 -4 -17 -10 3 -5 2 -10 -3 -10 -5 0 -12 -10 -15 -21
-4 -17 -3 -19 6 -10 15 15 27 14 27 -4 0 -8 -3 -14 -7 -14 -23 4 -29 -5 -29
-45 -1 -44 -1 -44 22 -30 28 19 43 1 15 -18 -17 -12 -18 -16 -5 -38 l15 -25
-7 24 c-4 16 -3 21 5 17 16 -10 14 -42 -5 -60 -14 -15 -13 -16 13 -16 25 -1
26 -2 9 -11 -15 -9 -16 -13 -5 -21 10 -6 7 -8 -11 -6 -14 2 -24 8 -23 14 1 6
-5 11 -13 11 -10 0 -1 -14 22 -35 32 -29 35 -36 23 -46 -22 -17 -21 -36 2 -36
11 0 17 5 14 10 -3 6 1 10 9 10 8 0 17 -10 19 -22 3 -13 4 -4 4 19 0 23 2 46
6 49 4 4 7 0 7 -9 0 -9 5 -19 10 -22 7 -4 11 9 11 37 -1 23 -1 69 -2 101 0 31
4 57 9 57 5 0 7 11 5 25 -3 13 -10 23 -15 22 -5 -1 -14 8 -18 20 -7 18 -6 21
10 18 27 -5 31 6 18 48 -11 37 -32 52 -26 21 2 -10 -2 -19 -8 -21 -12 -4 -12
25 0 45 4 6 2 12 -3 12 -6 0 -11 7 -11 16 0 8 5 12 11 8 8 -4 9 1 4 17 -9 31
-17 37 -22 21 -7 -19 -23 -3 -23 24 0 25 -14 32 -26 13z m106 -192 c0 -5 -4
-5 -10 -2 -5 3 -10 14 -10 23 0 15 2 15 10 2 5 -8 10 -19 10 -23z m-90 -42 c0
-12 -29 -3 -34 10 -4 13 -2 14 14 5 11 -6 20 -13 20 -15z m-43 -27 c-3 -8 -6
-5 -6 6 -1 11 2 17 5 13 3 -3 4 -12 1 -19z m74 -191 c-10 -9 -11 -8 -5 6 3 10
9 15 12 12 3 -3 0 -11 -7 -18z"/>
<path d="M3788 3153 c7 -3 16 -2 19 1 4 3 -2 6 -13 5 -11 0 -14 -3 -6 -6z"/>
<path d="M3785 3120 c-3 -5 -1 -10 4 -10 6 0 11 5 11 10 0 6 -2 10 -4 10 -3 0
-8 -4 -11 -10z"/>
<path d="M2443 3083 c9 -2 23 -2 30 0 6 3 -1 5 -18 5 -16 0 -22 -2 -12 -5z"/>
<path d="M3798 3083 c7 -3 16 -2 19 1 4 3 -2 6 -13 5 -11 0 -14 -3 -6 -6z"/>
<path d="M1075 3050 c3 -5 8 -10 11 -10 2 0 4 5 4 10 0 6 -5 10 -11 10 -5 0
-7 -4 -4 -10z"/>
<path d="M1801 3043 l-33 -4 7 -55 6 -54 -45 0 c-81 0 -76 38 -76 -580 l0
-549 22 -15 c12 -9 33 -16 46 -16 13 0 20 -4 17 -10 -4 -6 13 -10 44 -10 30 0
51 5 54 13 4 9 6 9 6 0 1 -9 16 -13 44 -12 35 1 38 2 17 9 -14 4 67 7 179 6
l203 -1 -1 -112 c-1 -62 -4 -121 -6 -131 -2 -13 3 -18 21 -18 15 0 24 6 24 16
0 12 2 12 9 2 6 -10 10 -8 14 8 4 14 10 19 18 14 7 -4 10 -3 5 4 -4 6 4 16 16
23 13 6 32 20 44 30 20 19 21 19 62 -11 23 -17 42 -35 42 -40 0 -6 6 -10 13
-10 7 0 24 -11 39 -25 21 -20 27 -21 32 -9 4 9 2 12 -5 8 -7 -4 -10 -1 -7 7 3
8 11 13 17 11 7 -1 10 2 6 8 -3 5 0 10 7 10 10 0 10 2 1 8 -9 6 -18 135 -14
207 1 6 40 9 105 7 95 -3 103 -5 99 -22 -4 -13 1 -19 18 -22 12 -2 24 -9 27
-17 3 -9 0 -11 -9 -5 -12 7 -12 5 0 -9 7 -9 11 -28 9 -41 -4 -20 1 -27 24 -37
21 -9 32 -9 40 -1 8 8 5 9 -11 5 -13 -3 -21 -1 -21 6 0 7 -4 9 -10 6 -15 -9
-12 4 5 21 13 14 15 14 15 0 0 -9 5 -16 10 -16 6 0 10 8 10 18 0 9 5 34 11 55
7 26 15 37 29 37 11 0 20 3 20 8 0 4 44 8 98 8 107 1 138 12 152 50 7 16 14
23 22 18 10 -6 10 -4 0 8 -12 15 -9 17 20 21 l33 4 -32 1 -33 2 0 68 c-1 37
-1 268 0 513 1 505 5 479 -76 479 l-44 0 0 54 0 55 -57 7 c-70 8 -302 -2 -357
-17 -106 -28 -145 -42 -195 -69 -29 -16 -58 -27 -64 -23 -6 4 -7 1 -2 -7 5 -8
3 -11 -6 -8 -8 3 -13 10 -12 16 2 7 -4 9 -14 5 -12 -5 -14 -3 -8 7 5 8 4 11
-2 7 -5 -3 -34 5 -63 19 -107 49 -193 66 -365 69 -88 2 -175 1 -194 -2z m351
-84 c77 -10 151 -36 226 -79 l52 -30 0 -435 0 -434 -32 19 c-48 27 -141 55
-236 70 -68 11 -104 12 -194 2 -61 -7 -113 -10 -116 -7 -3 3 -6 208 -7 455
l-2 449 31 4 c39 6 191 -2 278 -14z m876 11 l42 0 0 -455 c0 -445 0 -455 -20
-455 -10 0 -54 5 -97 12 -60 8 -98 8 -172 -2 -86 -11 -241 -59 -265 -81 -6 -5
-14 -9 -18 -9 -5 0 -7 196 -6 436 l3 437 64 34 c35 18 91 43 125 53 60 19 241
41 281 34 11 -2 39 -4 63 -4z m152 -614 l0 -504 -127 -7 c-138 -8 -353 1 -367
15 -5 5 8 13 30 19 76 20 155 24 263 11 119 -14 151 -8 128 24 -42 57 -391 63
-494 8 -15 -9 -25 -8 -39 3 -25 18 -13 28 66 55 86 29 250 36 388 17 56 -7
104 -11 107 -9 3 3 5 200 5 439 0 426 0 433 20 433 20 0 20 -7 20 -504z
m-1398 67 l3 -428 55 1 c30 0 92 5 138 11 54 7 110 8 160 2 82 -10 200 -43
229 -64 16 -12 16 -14 -10 -26 -24 -11 -33 -10 -60 3 -62 31 -101 38 -219 38
-88 0 -138 -5 -195 -21 -89 -23 -93 -25 -93 -45 0 -14 15 -15 113 -7 154 11
236 8 304 -13 l58 -17 -45 -9 c-47 -10 -468 -3 -479 8 -3 3 -7 228 -9 500 l-3
494 25 0 26 0 2 -427z m720 -543 c38 -29 49 -68 46 -154 l-3 -77 -42 36 -43
37 -42 -37 -43 -36 -3 73 c-4 92 0 106 39 146 36 37 56 40 91 12z m434 -187
c-10 -10 -19 5 -10 18 6 11 8 11 12 0 2 -7 1 -15 -2 -18z"/>
<path d="M1947 2763 c-4 -3 -7 -12 -7 -20 0 -10 37 -13 179 -13 175 0 217 7
180 31 -16 10 -342 12 -352 2z"/>
<path d="M1939 2654 c-6 -8 -9 -20 -6 -28 5 -12 36 -16 159 -18 181 -4 222 1
226 24 6 29 -29 35 -200 35 -129 0 -170 -3 -179 -13z"/>
<path d="M1934 2535 c-4 -8 -4 -22 0 -30 4 -13 34 -15 184 -15 147 0 182 3
192 15 10 12 10 18 0 30 -10 12 -45 15 -192 15 -150 0 -180 -2 -184 -15z"/>
<path d="M1934 2415 c-4 -8 -1 -22 6 -30 10 -12 44 -15 185 -15 180 0 204 5
189 44 -5 14 -29 16 -190 16 -156 0 -186 -2 -190 -15z"/>
<path d="M1933 2295 c-12 -34 12 -39 194 -36 174 2 199 7 190 36 -2 6 -77 11
-191 13 -163 2 -187 0 -193 -13z"/>
<path d="M2640 2760 c-28 -18 7 -27 133 -33 137 -7 202 1 202 23 0 13 -26 15
-160 17 -94 2 -166 -1 -175 -7z"/>
<path d="M2622 2654 c-9 -6 -13 -18 -9 -28 6 -14 29 -16 192 -16 159 0 186 2
192 16 13 34 -14 39 -189 39 -109 0 -176 -4 -186 -11z"/>
<path d="M2620 2540 c-12 -7 -12 -13 -4 -27 10 -16 31 -18 186 -21 147 -2 177
0 188 13 10 12 10 18 0 30 -10 12 -44 15 -184 15 -94 0 -178 -5 -186 -10z"/>
<path d="M2614 2415 c-4 -8 -1 -22 6 -30 10 -12 44 -15 185 -15 141 0 175 3
185 15 7 8 10 22 6 30 -4 13 -35 15 -191 15 -156 0 -187 -2 -191 -15z"/>
<path d="M2613 2294 c-14 -36 23 -44 193 -44 133 0 165 3 178 15 8 9 13 22 10
30 -5 13 -37 15 -190 15 -162 0 -185 -2 -191 -16z"/>
<path d="M1610 3031 c0 -6 4 -13 10 -16 6 -3 7 1 4 9 -7 18 -14 21 -14 7z"/>
<path d="M3800 3033 c8 -3 19 -11 23 -17 6 -7 7 -6 4 4 -2 8 -12 16 -23 17
-13 2 -15 1 -4 -4z"/>
<path d="M3865 3019 c-4 -6 -5 -12 -2 -15 2 -3 7 2 10 11 7 17 1 20 -8 4z"/>
<path d="M1073 2996 c0 -18 3 -24 9 -18 7 7 7 16 0 28 -8 14 -9 13 -9 -10z"/>
<path d="M3776 3003 c-6 -14 -5 -15 5 -6 7 7 10 15 7 18 -3 3 -9 -2 -12 -12z"/>
<path d="M1587 2993 c3 -7 6 -13 8 -13 2 0 5 6 8 13 3 8 -1 14 -8 14 -7 0 -11
-6 -8 -14z"/>
<path d="M1552 2941 c-11 -7 -11 -9 0 -14 9 -3 15 1 15 9 0 8 -1 14 -1 14 -1
0 -7 -4 -14 -9z"/>
<path d="M3828 2933 c6 -3 12 -11 12 -19 0 -21 16 -17 17 4 1 12 -6 18 -20 19
-12 0 -16 -1 -9 -4z"/>
<path d="M1100 2870 c0 -5 5 -10 11 -10 5 0 7 5 4 10 -3 6 -8 10 -11 10 -2 0
-4 -4 -4 -10z"/>
<path d="M1076 2842 c-2 -4 4 -8 14 -8 10 0 16 4 14 8 -3 4 -9 8 -14 8 -5 0
-11 -4 -14 -8z"/>
<path d="M3807 2829 c7 -7 15 -10 18 -7 3 3 -2 9 -12 12 -14 6 -15 5 -6 -5z"/>
<path d="M3725 2703 c-16 -9 -24 -18 -18 -20 7 -3 22 2 34 10 12 9 29 13 38
10 14 -4 14 -3 1 6 -19 13 -19 13 -55 -6z"/>
<path d="M3745 2671 c-16 -10 -32 -26 -33 -36 -3 -14 1 -17 25 -13 20 3 30 0
30 -9 0 -7 -19 -15 -44 -19 -42 -6 -43 -7 -27 -25 15 -17 15 -19 0 -25 -9 -3
-16 -12 -16 -20 0 -18 31 -6 48 18 7 10 19 18 27 18 19 0 7 -38 -13 -42 -14
-3 -13 -7 6 -26 12 -12 28 -22 35 -21 10 0 10 2 0 6 -21 8 -15 20 17 32 17 5
30 16 30 23 0 10 -2 10 -9 -1 -5 -8 -16 -11 -26 -8 -9 4 -14 3 -10 -3 3 -6 1
-10 -5 -10 -6 0 -11 10 -10 23 4 39 0 47 -17 48 -15 0 -15 2 2 8 12 5 23 4 27
-3 5 -7 8 -4 8 7 0 9 -5 17 -11 17 -7 0 -6 8 3 23 30 47 11 66 -37 38z m35 -1
c-11 -7 -11 -10 -2 -10 7 0 10 -4 7 -10 -15 -24 -26 -5 -16 28 1 1 7 2 14 2 8
0 7 -4 -3 -10z"/>
<path d="M3835 2670 c-4 -6 -12 -7 -18 -4 -7 4 -9 3 -4 -1 4 -5 0 -16 -8 -25
-13 -14 -12 -16 8 -17 17 -2 19 0 7 7 -8 5 -10 10 -5 10 6 0 16 9 23 20 7 11
10 20 8 20 -3 0 -8 -5 -11 -10z"/>
<path d="M1150 2650 c0 -5 6 -10 14 -10 8 0 18 5 21 10 3 6 -3 10 -14 10 -12
0 -21 -4 -21 -10z"/>
<path d="M1185 2620 c-3 -5 -2 -10 2 -10 5 0 9 -9 9 -20 0 -11 -4 -20 -9 -20
-5 0 -7 -7 -3 -15 3 -8 1 -15 -4 -15 -6 0 -9 -10 -9 -22 1 -19 2 -19 6 -5 3
10 11 16 18 14 7 -3 18 0 24 6 16 16 14 47 -3 53 -8 3 -12 12 -10 19 6 16 -12
29 -21 15z"/>
<path d="M3822 2609 c-13 -5 -20 -13 -17 -19 9 -15 19 -12 33 10 7 11 11 20
10 19 -2 0 -13 -4 -26 -10z"/>
<path d="M1155 2580 c-16 -7 -17 -9 -3 -9 9 -1 20 4 23 9 7 11 7 11 -20 0z"/>
<path d="M3820 2560 c-12 -8 -10 -10 8 -10 13 0 20 4 17 10 -7 12 -6 12 -25 0z"/>
<path d="M3643 2484 c-24 -34 -22 -79 4 -69 11 3 13 1 9 -10 -4 -10 1 -15 15
-15 16 0 19 4 14 21 -6 17 -4 20 6 13 24 -15 38 -13 32 4 -4 10 -2 13 5 8 20
-12 14 2 -10 24 -12 11 -28 18 -35 16 -6 -3 -13 5 -15 17 -3 21 -4 20 -25 -9z"/>
<path d="M1180 2430 c-8 -5 -12 -12 -9 -15 4 -3 12 1 19 10 14 17 11 19 -10 5z"/>
<path d="M3700 2390 c0 -6 7 -10 15 -10 8 0 15 2 15 4 0 2 -7 6 -15 10 -8 3
-15 1 -15 -4z"/>
<path d="M3688 2343 c7 -3 16 -2 19 1 4 3 -2 6 -13 5 -11 0 -14 -3 -6 -6z"/>
<path d="M1170 2321 c0 -6 4 -13 10 -16 6 -3 7 1 4 9 -7 18 -14 21 -14 7z"/>
<path d="M3470 2311 c-8 -16 -17 -19 -44 -14 -30 5 -34 3 -32 -13 4 -24 -13
-46 -28 -37 -6 3 -8 3 -4 -2 4 -4 -2 -25 -12 -46 -24 -45 -26 -109 -6 -148 8
-15 31 -42 51 -60 30 -26 44 -31 86 -31 28 0 59 5 70 11 15 8 25 7 37 -3 15
-11 16 -11 4 4 -11 14 -10 18 6 30 27 19 45 56 52 108 l6 45 5 -52 c2 -28 1
-49 -3 -46 -5 2 -8 0 -8 -6 0 -15 18 -23 25 -11 4 6 10 8 14 5 5 -2 8 12 8 32
-1 24 4 38 13 41 12 3 13 2 1 -6 -9 -7 -10 -12 -2 -16 6 -4 11 -4 12 1 0 4 3
20 5 36 3 19 0 27 -10 27 -7 0 -13 8 -12 18 0 9 -5 16 -12 14 -8 -1 -11 2 -7
8 3 6 11 8 16 5 13 -9 11 9 -3 23 -9 9 -9 12 0 12 7 0 12 5 12 11 0 5 -5 7
-11 3 -6 -3 -15 -1 -19 6 -10 17 -47 23 -55 10 -3 -5 -2 -17 3 -26 8 -15 11
-14 25 6 15 22 16 22 14 2 0 -11 -5 -18 -10 -15 -4 3 -11 -5 -14 -16 -5 -20
-7 -19 -30 13 -13 20 -34 38 -48 42 -13 3 -31 17 -40 30 -19 29 -41 31 -55 5z
m180 -45 c0 -3 -4 -8 -10 -11 -5 -3 -10 -1 -10 4 0 6 5 11 10 11 6 0 10 -2 10
-4z m-159 -58 c0 -7 2 -23 5 -36 2 -13 0 -21 -5 -18 -11 7 -8 -20 4 -31 4 -4
5 -3 2 3 -4 7 0 17 8 24 11 9 12 17 4 34 -9 17 -7 17 11 -4 22 -27 21 -77 -3
-92 -6 -4 -8 -8 -2 -8 5 0 -1 -7 -13 -16 -36 -25 -74 -14 -96 27 -17 32 -18
40 -6 68 18 43 89 81 91 49z m189 6 c0 -8 -19 -13 -24 -6 -3 5 1 9 9 9 8 0 15
-2 15 -3z"/>
<path d="M3680 2309 c0 -5 9 -9 20 -9 11 0 20 2 20 4 0 2 -9 6 -20 9 -11 3
-20 1 -20 -4z"/>
<path d="M1350 1981 c13 -10 13 -11 0 -12 -25 -1 43 -28 70 -27 23 1 23 1 3 5
-13 2 -23 8 -23 13 0 4 -9 6 -20 3 -14 -4 -20 -1 -18 7 2 7 -4 15 -12 17 -13
4 -13 3 0 -6z"/>
<path d="M1385 1920 c17 -4 44 -8 60 -8 25 -1 27 1 10 8 -11 5 -38 8 -60 8
-38 0 -39 -1 -10 -8z"/>
<path d="M1488 1873 c7 -3 16 -2 19 1 4 3 -2 6 -13 5 -11 0 -14 -3 -6 -6z"/>
<path d="M3287 1831 c-2 -10 -1 -24 3 -31 5 -7 9 0 12 19 5 34 -7 43 -15 12z"/>
<path d="M3320 1820 c0 -5 5 -10 10 -10 6 0 10 5 10 10 0 6 -4 10 -10 10 -5 0
-10 -4 -10 -10z"/>
<path d="M2668 1753 c7 -3 16 -2 19 1 4 3 -2 6 -13 5 -11 0 -14 -3 -6 -6z"/>
<path d="M2778 1753 c7 -3 16 -2 19 1 4 3 -2 6 -13 5 -11 0 -14 -3 -6 -6z"/>
<path d="M2963 1705 c0 -8 4 -12 9 -9 5 3 6 10 3 15 -9 13 -12 11 -12 -6z"/>
<path d="M2830 1685 c0 -5 5 -17 10 -25 5 -8 10 -10 10 -5 0 6 -5 17 -10 25
-5 8 -10 11 -10 5z"/>
<path d="M1855 1669 c-4 -6 -5 -12 -2 -15 2 -3 7 2 10 11 7 17 1 20 -8 4z"/>
<path d="M2747 1658 c-15 -5 -25 -14 -22 -18 6 -10 62 7 71 21 7 11 -13 10
-49 -3z"/>
<path d="M3210 1646 c7 -7 13 -7 20 0 6 6 3 10 -10 10 -13 0 -16 -4 -10 -10z"/>
<path d="M1885 1631 c-3 -5 -2 -12 3 -15 5 -3 9 1 9 9 0 17 -3 19 -12 6z"/>
<path d="M2774 1625 c-4 -10 -11 -12 -18 -7 -16 12 -39 9 -43 -5 -3 -8 3 -11
16 -8 12 2 25 -3 31 -13 5 -9 10 -13 10 -8 0 5 8 2 18 -5 15 -13 16 -12 3 3
-11 15 -11 19 2 24 9 3 13 12 10 20 -7 18 -22 18 -29 -1z m7 -18 c-10 -9 -11
-8 -5 6 3 10 9 15 12 12 3 -3 0 -11 -7 -18z"/>
<path d="M1993 1545 c0 -8 4 -12 9 -9 5 3 6 10 3 15 -9 13 -12 11 -12 -6z"/>
<path d="M2659 1533 c-13 -16 -12 -17 4 -4 9 7 17 15 17 17 0 8 -8 3 -21 -13z"/>
<path d="M2816 1498 c3 -5 10 -6 15 -3 13 9 11 12 -6 12 -8 0 -12 -4 -9 -9z"/>
<path d="M1480 1164 c0 -104 0 -105 23 -102 17 2 23 11 25 36 2 17 7 32 12 32
11 0 37 -26 50 -51 11 -20 60 -27 60 -9 0 6 -7 22 -16 35 -14 22 -14 26 0 47
45 63 -9 118 -116 118 l-38 0 0 -106z m115 31 c0 -16 -8 -21 -37 -23 -35 -3
-38 -1 -38 23 0 24 3 26 38 23 29 -2 37 -7 37 -23z"/>
<path d="M1762 1168 l3 -103 73 -3 c67 -3 72 -1 72 18 0 17 -6 20 -49 20 -35
0 -51 4 -55 16 -9 24 -9 24 34 24 33 0 40 3 40 20 0 16 -7 20 -34 20 -20 0
-36 6 -39 14 -8 21 2 26 50 26 35 0 43 3 43 19 0 14 -10 20 -46 25 -101 13
-95 20 -92 -96z"/>
<path d="M2065 1260 c-87 -35 -89 -154 -3 -191 43 -18 108 5 108 38 0 12 -8
13 -39 8 -69 -11 -109 31 -77 80 17 26 69 35 81 15 5 -8 11 -7 21 1 44 37 -27
76 -91 49z"/>
<path d="M2266 1239 c-9 -45 -7 -152 3 -167 5 -8 17 -12 27 -10 16 3 18 13 17
103 -2 90 -4 100 -21 103 -15 2 -21 -5 -26 -29z"/>
<path d="M2415 1260 c-2 -3 -1 -50 2 -103 5 -86 8 -97 24 -97 14 0 19 7 19 30
0 25 4 30 24 30 40 0 75 18 87 43 14 31 -12 85 -44 91 -38 9 -108 12 -112 6z
m100 -70 c0 -21 -5 -26 -32 -28 -29 -3 -33 0 -33 21 0 31 9 39 40 35 19 -2 25
-9 25 -28z"/>
<path d="M2670 1166 l0 -106 70 0 c63 0 70 2 70 19 0 17 -8 20 -47 23 -35 2
-48 7 -48 18 0 9 12 16 30 18 56 7 56 42 -1 42 -27 0 -34 4 -34 20 0 17 7 20
50 20 43 0 50 3 50 20 0 17 -7 20 -39 20 -21 0 -53 3 -70 6 l-31 7 0 -107z"/>
<path d="M2910 1164 l0 -107 61 6 c96 8 137 64 105 140 -17 43 -34 52 -108 61
l-58 7 0 -107z m112 39 c40 -36 14 -93 -41 -93 -19 0 -21 6 -21 55 0 50 2 55
22 55 12 0 30 -7 40 -17z"/>
<path d="M3167 1264 c-6 -7 2 -184 9 -196 3 -4 12 -8 20 -8 11 0 14 20 14 105
0 95 -2 105 -18 105 -10 0 -21 -3 -25 -6z"/>
<path d="M3327 1176 c-20 -52 -37 -99 -37 -105 0 -18 39 -12 49 8 7 11 25 20
47 23 30 4 38 0 47 -19 12 -27 57 -33 57 -7 0 8 -19 56 -41 105 -34 72 -46 89
-64 89 -18 0 -28 -15 -58 -94z m83 -23 c0 -7 -9 -13 -20 -13 -22 0 -23 3 -13
39 6 23 7 23 20 6 7 -11 13 -25 13 -32z"/>
<path d="M1280 1176 c-18 -22 5 -48 39 -44 20 2 26 9 26 28 0 19 -6 26 -26 28
-14 2 -31 -4 -39 -12z"/>
<path d="M3602 1163 c4 -33 33 -42 63 -18 20 15 20 15 1 30 -11 8 -31 15 -44
15 -20 0 -23 -4 -20 -27z"/>
<path d="M1822 900 c-35 -56 -38 -70 -21 -103 31 -59 103 -47 123 19 8 27 -5
60 -42 102 l-28 34 -32 -52z m59 -46 c9 -11 10 -20 3 -32 -23 -35 -60 -19 -50
22 7 29 27 34 47 10z"/>
<path d="M2725 938 c-37 -20 -55 -51 -55 -100 0 -40 4 -50 31 -72 52 -44 111
-29 145 35 21 41 10 81 -32 119 -37 32 -57 36 -89 18z m75 -69 c15 -27 9 -59
-13 -73 -23 -15 -71 11 -75 41 -7 46 66 73 88 32z"/>
<path d="M3051 936 c-76 -42 -63 -173 18 -191 53 -11 121 42 121 95 0 34 -28
79 -60 95 -35 18 -48 18 -79 1z m79 -63 c26 -33 23 -50 -12 -76 -25 -19 -28
-19 -52 -3 -30 19 -35 60 -9 88 23 25 48 22 73 -9z"/>
<path d="M2111 905 c-68 -78 -16 -178 74 -141 71 30 74 119 5 159 -39 23 -44
22 -79 -18z m84 -65 c0 -30 -29 -49 -52 -34 -25 16 -28 42 -7 65 15 17 20 18
38 5 12 -7 21 -24 21 -36z"/>
<path d="M2416 912 c-14 -16 -29 -45 -33 -65 -5 -31 -1 -40 25 -67 17 -16 40
-30 52 -30 28 0 80 52 80 80 0 42 -51 110 -83 110 -7 0 -26 -13 -41 -28z m66
-39 c32 -29 13 -79 -28 -71 -30 6 -39 33 -21 62 20 31 25 31 49 9z"/>
<path d="M3366 889 c-52 -41 -25 -119 41 -119 62 0 87 80 37 119 -15 12 -32
21 -39 21 -7 0 -24 -9 -39 -21z m58 -35 c20 -19 20 -28 1 -44 -21 -17 -45 -5
-45 23 0 39 18 48 44 21z"/>
<path d="M1532 864 c-27 -18 -29 -55 -4 -77 25 -22 37 -21 62 5 25 28 26 64 1
78 -26 13 -33 13 -59 -6z"/>
</g>
</svg>
